Coordinates
version=1
nRows=17
nColumns=24
inDegrees=yes

Units are S.I. units (second, meters, Newtons, ...)
Angles are in degrees.

endheader
time	pelvis_tilt	pelvis_list	pelvis_rotation	pelvis_tx	pelvis_ty	pelvis_tz	hip_flexion_r	hip_adduction_r	hip_rotation_r	knee_angle_r	ankle_angle_r	subtalar_angle_r	mtp_angle_r	hip_flexion_l	hip_adduction_l	hip_rotation_l	knee_angle_l	ankle_angle_l	subtalar_angle_l	mtp_angle_l	lumbar_extension	lumbar_bending	lumbar_rotation
      2.09500000	      5.12510199	     -4.89729897	     -6.53138656	     -0.54581329	      0.99379040	      0.00296337	    -21.79574977	      2.87707228	      1.80294729	     -4.90657898	     16.17776088	     10.64904535	     10.21210450	     15.82313659	     -6.69372549	    -16.90072246	     -0.86296793	      1.83850733	     11.14292015	     21.92189402	    -17.19504793	      5.11285867	      8.21801411
      2.10000000	      5.17157780	     -4.83961105	     -6.44643118	     -0.53956457	      0.99325763	      0.00227477	    -22.08085121	      2.73739373	      1.62617005	     -5.13272479	     15.83714308	     10.79142684	     13.65740682	     15.81265811	     -6.53001106	    -16.86629515	     -1.18493532	      1.53564173	     10.65415219	     21.64133560	    -17.16191195	      5.06523380	      8.05233721
      2.10500000	      5.26401903	     -4.75858885	     -6.37228640	     -0.53334573	      0.99283460	      0.00161330	    -22.41237649	      2.57004846	      1.56304103	     -5.37097195	     15.81650301	     10.86653160	     13.77162111	     15.74876966	     -6.34797976	    -16.75834115	     -1.54892066	      1.14526187	     10.01936398	     21.62179134	    -17.18332133	      4.97726023	      7.89715298
      2.11000000	      5.35615511	     -4.67745342	     -6.27886340	     -0.52718404	      0.99246625	      0.00092039	    -22.68706484	      2.41052250	      1.39844792	     -5.70505603	     15.75924606	     11.07306955	     14.12489864	     15.70007810	     -6.17142154	    -16.55493906	     -1.97228338	      0.68380102	      9.32938788	     21.78150511	    -17.21293531	      4.89203174	      7.69596569
      2.11500000	      5.37357046	     -4.56363901	     -6.24186473	     -0.52103592	      0.99208986	      0.00029093	    -22.85526588	      2.21293975	      1.35198893	     -6.05953054	     15.53812273	     11.08180551	     16.38399141	     15.71829500	     -5.98851711	    -16.37318385	     -2.40629786	     -0.05432306	      8.53918974	     23.34098987	    -17.15899114	      4.76615559	      7.57800743
      2.12000000	      5.45760183	     -4.42057511	     -6.19853016	     -0.51490655	      0.99188504	     -0.00032247	    -23.08846492	      1.98479821	      1.33267187	     -6.42212935	     15.45120772	     11.10519523	     16.53627118	     15.66756864	     -5.77772830	    -16.17770475	     -2.88926031	     -0.62893950	      7.85598508	     23.25168346	    -17.18102416	      4.59187121	      7.45006788
      2.12500000	      5.46552408	     -4.31023115	     -6.13385787	     -0.50891326	      0.99164925	     -0.00098319	    -23.16141935	      1.81216893	      1.25940342	     -6.90938879	     15.15995406	     11.08812190	     18.94734099	     15.72387990	     -5.61254437	    -15.86449510	     -3.41332065	     -1.35983913	      7.02773623	     24.36829066	    -17.13982354	      4.46908719	      7.29371885
      2.13000000	      5.55987028	     -4.13239253	     -6.07856975	     -0.50286431	      0.99162712	     -0.00161658	    -23.32937963	      1.56018469	      1.21333971	     -7.38711925	     15.01220727	     11.10510970	     19.13069028	     15.66853922	     -5.37618357	    -15.61117494	     -3.94258954	     -1.96119358	      6.33513013	     24.28993453	    -17.18337960	      4.25302622	      7.13755124
      2.13500000	      5.54572969	     -3.98067763	     -6.01454497	     -0.49694120	      0.99154748	     -0.00228229	    -23.31581817	      1.35699916	      1.16044455	     -7.95848147	     14.66578981	     11.01558179	     21.71211796	     15.76430568	     -5.18821915	    -15.29470123	     -4.53071319	     -2.71132814	      5.56357950	     25.42900394	    -17.12552943	      4.08164507	      7.00514066
      2.14000000	      5.64298889	     -3.78393827	     -5.94164888	     -0.49098768	      0.99170292	     -0.00295318	    -23.40766684	      1.09932267	      1.08760387	     -8.55830252	     14.46519785	     11.03132786	     21.92821505	     15.72625581	     -4.94412597	    -15.01979149	     -5.12273964	     -3.27552577	      4.90724827	     25.35031752	    -17.18696813	      3.84463299	      6.84699964
      2.14500000	      5.60348530	     -3.61583841	     -5.86634574	     -0.48514276	      0.99176547	     -0.00362215	    -23.29115798	      0.89648965	      1.04096677	     -9.24328167	     14.03465086	     10.87569293	     24.77101865	     15.87467769	     -4.75869798	    -14.71618489	     -5.78837876	     -3.92674928	      4.21746214	     26.29986500	    -17.11237349	      3.65342570	      6.71901353
      2.15000000	      5.69125623	     -3.39896552	     -5.78255419	     -0.47923449	      0.99208562	     -0.00428916	    -23.30452010	      0.63132541	      0.95329991	     -9.94827706	     13.79881545	     10.89253032	     24.94856368	     15.86648403	     -4.51128654	    -14.48067282	     -6.44497936	     -4.41933771	      3.64154991	     26.20910118	    -17.17051404	      3.39086236	      6.56389750
      2.15500000	      5.64384557	     -3.25230843	     -5.67713350	     -0.47345912	      0.99229216	     -0.00501876	    -23.09604501	      0.46552728	      0.86385334	    -10.76832226	     13.24966056	     10.70450460	     28.05136645	     16.04234438	     -4.35330193	    -14.15084764	     -7.16984931	     -4.89767668	      3.00881367	     26.87051050	    -17.10297812	      3.23086110	      6.44019917
      2.16000000	      5.72080170	     -3.03042363	     -5.56126670	     -0.46757539	      0.99274123	     -0.00573587	    -23.01091466	      0.20750912	      0.69891258	    -11.62232786	     12.95680077	     10.79277905	     28.23950378	     16.06088537	     -4.10453154	    -13.91340964	     -7.87520934	     -5.25427404	      2.47125710	     26.78390478	    -17.15742437	      2.96958091	      6.27170203
      2.16500000	      5.65756287	     -2.89820345	     -5.41826466	     -0.46182801	      0.99306925	     -0.00650978	    -22.71181205	      0.07239892	      0.56325659	    -12.56398195	     12.32120128	     10.58767552	     31.25047165	     16.26733758	     -3.96321282	    -13.57275032	     -8.64554488	     -5.56638843	      1.95587612	     27.06444106	    -17.08047510	      2.83324206	      6.13836920
      2.17000000	      5.75350546	     -2.69087558	     -5.29640960	     -0.45595135	      0.99365749	     -0.00727451	    -22.56301150	     -0.18256735	      0.33756098	    -13.55929574	     11.96775263	     10.79305874	     31.44753427	     16.26126365	     -3.72636176	    -13.34749250	     -9.37248063	     -5.74752036	      1.43472512	     26.98767699	    -17.16353574	      2.59006535	      6.00052887
      2.17500000	      5.72013980	     -2.56683365	     -5.14829359	     -0.45017373	      0.99414224	     -0.00807288	    -22.22870851	     -0.32226812	      0.16139620	    -14.60546446	     11.22784109	     10.64560486	     34.52511796	     16.41699572	     -3.58759667	    -13.04550036	    -10.14130780	     -5.88695159	      1.00360208	     26.93640961	    -17.12044206	      2.46072441	      5.89715161
